<?xml version="1.0" encoding="utf-8"?>
<!-- Generator: Adobe Illustrator 18.0.0, SVG Export Plug-In . SVG Version: 6.00 Build 0)  -->
<!DOCTYPE svg PUBLIC "-//W3C//DTD SVG 1.1//EN" "http://www.w3.org/Graphics/SVG/1.1/DTD/svg11.dtd">
<svg version="1.1" id="Ebene_1" xmlns="http://www.w3.org/2000/svg" xmlns:xlink="http://www.w3.org/1999/xlink" x="0px" y="0px"
	 viewBox="0 0 94.9 94.2" enable-background="new 0 0 94.9 94.2" xml:space="preserve">
<g>
	<path fill="#FFFFFF" d="M10.1,47.1c0,20.5,16.7,37.7,37.3,37.7c20.7,0,37.3-17.1,37.3-37.7c0-20.7-16.4-37.7-37.3-37.7
		C26.6,9.4,10.1,26.4,10.1,47.1z"/>
	<polygon fill="#1452A2" points="33.5,66 28.6,61 44,45.6 44,18.1 51,18.1 51,48.5 	"/>
	<polygon opacity="0.15" fill="#1452A2" points="51,18.1 51,48.5 33.5,66 31.1,63.5 31.1,63.5 59,91.5 91.7,58.8 	"/>
	<path fill="#1452A2" d="M94.9,47.2c0,26.2-21.5,47-47.5,47c-26,0-47.5-20.8-47.5-47C0,21.1,21.5,0,47.5,0
		C73.4,0,94.9,21.1,94.9,47.2z M10.1,47.1c0,20.5,16.7,37.7,37.3,37.7c20.7,0,37.3-17.2,37.3-37.7c0-20.7-16.4-37.7-37.3-37.7
		C26.6,9.4,10.1,26.4,10.1,47.1z"/>
</g>
</svg>
